<svg xmlns="http://www.w3.org/2000/svg" version="1.1" xmlns:xlink="http://www.w3.org/1999/xlink" xmlns:svgjs="http://svgjs.dev/svgjs" viewBox="0 0 800 800"><defs><linearGradient x1="50%" y1="0%" x2="50%" y2="100%" id="uundulate-grad"><stop stop-color="hsl(0, 0%, 35%)" stop-opacity="1" offset="45%"></stop><stop stop-color="hsl(316, 73%, 52%)" stop-opacity="1" offset="100%"></stop></linearGradient></defs><g stroke-width="2" stroke="url(#uundulate-grad)" fill="none"><path d="M702.6614878266585 67.88115195719865C771.4002516172054 276.59594613104264 799.8983668656585 804.2631064847415 686.790138043992 897.0520660474263C573.6819092223254 989.841025610111 290.7380144189053 670.9098643608315 159.74198948266036 513.2681578580863C28.74596454641545 355.62645135534103 16.94628452362076 269.1316881353134 58.00921835001759 140.37187483424827C99.07215217641442 11.612061533183123 222.5415157083985 -89.67671205430622 356.8440718493654 -104.77894598702483C491.14662799033226 -119.88117991974343 633.9227240361114 -140.83364221664544 702.6614878266585 67.88115195719865C771.4002516172054 276.59594613104264 799.8983668656585 804.2631064847415 686.790138043992 897.0520660474263 "></path><path d="M688.9041460837386 82.97745629605811C754.5184206110789 282.2052143710912 781.7211669846024 785.8875037996218 673.7542212911933 874.4587833821845C565.7872755977844 963.0300629647475 295.70446692179235 658.595772681344 170.66280675537678 508.11959829236C45.62114658896115 357.64342390337595 34.35781565811175 275.08024082971315 73.5542524923996 152.17314631506008C112.7506893266875 29.26605180040707 230.6078090617633 -67.41868662401464 358.80570355995883 -81.83445537797326C487.00359805815447 -96.25022413193193 623.2898715563982 -116.25030177897474 688.9041460837386 82.97745629605811C754.5184206110789 282.2052143710912 781.7211669846024 785.8875037996218 673.7542212911933 874.4587833821845 "></path><path d="M675.1468043408188 98.07379115249591C737.6365896049524 287.81451312871764 763.543967103546 767.5119316320802 660.7183045383947 851.8655312345209C557.8926419732434 936.2191308369618 300.6709194246795 646.2817115194348 181.5836240280932 502.9710692442119C62.49632863150691 359.660426968989 51.769346792602676 281.0288240416911 89.0992866347816 163.97444831345013C126.42922647696054 46.92007258520914 238.6741024151279 -45.160630676144876 360.7673352705524 -58.88993425134362C482.86056812597667 -72.6192378265423 612.657019076685 -91.66693082372592 675.1468043408188 98.07379115249591C737.6365896049524 287.81451312871764 763.543967103546 767.5119316320802 660.7183045383947 851.8655312345209 "></path><path d="M661.3894625978988 113.17006497377736C720.754758598826 293.42375085118806 745.3667672224899 749.1362984293824 647.682387785596 829.2722180517012C549.9980083487022 909.40813767402 305.6373719275666 633.9675893223693 192.50444130080962 497.8224791609076C79.37151067405267 361.6773689994459 69.18087792709366 286.9773462185128 104.64432077716361 175.77568927668392C140.10776362723362 64.5740323348549 246.7403957684926 -22.902635763431363 362.72896698114585 -35.94547415987017C478.717538193799 -48.98831255630893 602.0241665969719 -67.0836209036334 661.3894625978988 113.17006497377736C720.754758598826 293.42375085118806 745.3667672224899 749.1362984293824 647.682387785596 829.2722180517012 "></path><path d="M647.632120854979 128.26639983021505C703.8729275926994 299.03304960881474 727.1895673414336 730.760726261841 634.6464710327974 806.6789659040376C542.1033747241611 882.5972055462344 310.60382443045376 621.6535281604602 203.4252585735261 492.6739501127595C96.24669271659843 363.6943720650588 86.59240906158459 292.9259294304908 120.18935491954562 187.57699127507385C153.7863007775067 82.22805311965692 254.8066891218574 -0.6445798155616558 364.6905986917393 -13.000953033240478C474.5745082616213 -25.357326250919357 591.3913141172586 -42.50024994838458 647.632120854979 128.26639983021505C703.8729275926994 299.03304960881474 727.1895673414336 730.760726261841 634.6464710327974 806.6789659040376 "></path><path d="M633.8747791120592 143.3626736514965C686.9910965865729 304.64228733128516 709.0123674603775 712.3850930591432 621.6105542799987 784.0856527212177C534.20874109962 855.7862123832924 315.5702769333409 609.3394059633946 214.3460758462425 487.5253600294551C113.12187475914419 365.7113140955157 104.00394019607558 298.8744516073125 135.7343890619277 199.37823223830765C167.46483792777974 99.88201286930274 262.872982475222 21.613415097151858 366.65223040233275 9.943507058232967C470.4314783294435 -1.7264009806859804 580.7584616375455 -17.91694002829206 633.8747791120592 143.3626736514965C686.9910965865729 304.64228733128516 709.0123674603775 712.3850930591432 621.6105542799987 784.0856527212177 "></path><path d="M620.1174373691395 158.4590085079342C670.1092655804464 310.2515860889116 690.8351675793213 694.0095208916016 608.5746375272001 761.4924005735543C526.314107475079 828.9752802555067 320.5367294362279 597.0253448014853 225.26689311895893 482.37683098130697C129.9970568016899 367.72831716112864 121.4154713305665 304.82303481929034 151.2794232043097 211.17953423669758C181.14337507805283 117.53603365410481 270.93927582858674 43.87147104502162 368.6138621129263 32.888028184862605C466.2884483972658 21.904585324703646 570.1256091578324 6.666430926956764 620.1174373691395 158.4590085079342C670.1092655804464 310.2515860889116 690.8351675793213 694.0095208916016 608.5746375272001 761.4924005735543 "></path><path d="M606.3600956262195 173.5553128467938C653.2274345743199 315.86085432896016 672.657967698265 675.6339182064821 595.5387207744014 738.8991179083127C518.419473850538 802.1643176101434 325.50318193911517 584.7112531219981 236.1877103916754 477.2282714155808C146.87223884423565 369.74528970916367 138.8270024650575 310.7715875136903 166.8244573466917 222.9808057175095C194.8219122283259 135.1900239213287 279.00556918195144 66.1294964753132 370.57549382351976 55.832518793914176C462.14541846508814 45.53554111251515 559.4927566781192 31.249771364627406 606.3600956262195 173.5553128467938C653.2274345743199 315.86085432896016 672.657967698265 675.6339182064821 595.5387207744014 738.8991179083127 "></path><path d="M592.6027844008778 188.65161718565338C636.3456340857715 321.4701225690087 654.480798334787 657.2583155213624 582.5028345391809 716.305835243071C510.524870743575 775.3533549647796 330.4696649595803 572.3971614425107 247.10855818196995 472.0797118498547C163.74745140435954 371.7622622571986 156.23856411712654 316.72014020809 182.36952200665183 234.7820771983213C208.50047989617707 152.8440141885526 287.07189305289427 88.38752190560484 372.53715605169134 78.77700940296575C458.00241905048847 69.16649690032665 548.8599347159842 55.833111802298106 592.6027844008778 188.65161718565338C636.3456340857715 321.4701225690087 654.480798334787 657.2583155213624 582.5028345391809 716.305835243071 "></path><path d="M578.845442657958 203.74792152451295C619.4638030796449 327.07939080905714 636.3035984537307 638.8827128362427 569.4669177863823 693.7125525778292C502.63023711903395 748.5423923194157 335.43611746246745 560.0830697630233 258.0293754546864 466.9311522841283C180.6226334469053 373.7792348052335 173.65009525161753 322.66869290248985 197.91455614903384 246.58334867913322C222.17901704645016 170.49800445577654 295.13818640625897 110.64554733589648 374.4987877622848 101.72150001201726C453.8593891183107 92.7974526881381 538.227082236271 80.41645223996875 578.845442657958 203.74792152451295C619.4638030796449 327.07939080905714 636.3035984537307 638.8827128362427 569.4669177863823 693.7125525778292 "></path><path d="M565.0881009150381 218.8442563809507C602.5819720735183 332.6886895666837 618.1263985726746 620.5071406687011 556.4310010335837 671.1193004301657C494.7356034944928 721.7314601916302 340.4025699653546 547.7690086011139 268.9501927274028 461.7826232359803C197.49781548945106 375.79623787084654 191.06162638610846 328.6172761144678 213.45959029141585 258.38465067752315C235.85755419672319 188.1520252405786 303.20447975962367 132.9036032837662 376.46041947287836 124.66602113864695C449.7163591861329 116.42843899352772 527.5942297565579 104.99982319521757 565.0881009150381 218.8442563809507C602.5819720735183 332.6886895666837 618.1263985726746 620.5071406687011 556.4310010335837 671.1193004301657 "></path><path d="M551.3307591721183 233.94056071981026C585.7001410673918 338.29795780673226 599.9491986916183 602.1315379835817 543.3950842807851 648.5260177649241C486.8409698699518 694.9204975462665 345.3690224682417 535.4549169216267 279.8710100001192 456.63406367025414C214.37299753199676 377.81321041888145 208.47315752059944 334.56582880886765 229.00462443379786 270.1859221583351C249.53609134699627 205.8060155078025 311.2707731129883 155.16162871405783 378.4220511834717 147.61051174769852C445.5733292539552 140.05939478133922 516.9613772768448 129.58316363288822 551.3307591721183 233.94056071981026C585.7001410673918 338.29795780673226 599.9491986916183 602.1315379835817 543.3950842807851 648.5260177649241 "></path><path d="M537.5734174291985 249.03691083503702C568.8183100612653 343.9072718231479 581.7719988105621 583.7559810748292 530.3591675279864 625.9327808760495C478.94633624541075 668.10958067727 350.3354749711288 523.1408710185065 290.7918272728357 451.48554988089495C231.24817957454252 379.83022874328356 225.88468865509043 340.5144272796347 244.54965857617987 281.9872394155141C263.21462849726936 223.46005155139363 319.337066466353 177.4196999207166 380.38368289406526 170.55504813311728C441.4302993217774 163.6903963455179 506.32852479713154 154.1665498469261 537.5734174291985 249.03691083503702C568.8183100612653 343.9072718231479 581.7719988105621 583.7559810748292 530.3591675279864 625.9327808760495 "></path><path d="M523.8160604274894 264.13318465631846C551.9364637963497 349.5165095456183 563.5947836707169 565.3803478721314 517.3232355163987 603.3394676932297C471.05168736208054 641.2985875143281 355.3019122152269 510.826748821441 301.71262928676305 446.3369597975907C248.12334635829922 381.84717077374034 243.2962045307923 346.4629494564563 260.0946774597728 293.78848037874786C276.8931503887533 241.1140113010394 327.4033445609287 199.6776948334301 382.34529934586965 193.49950822459067C437.28725413081065 187.3213216157513 495.6956570586293 178.74985976701862 523.8160604274894 264.13318465631846C551.9364637963497 349.5165095456183 563.5947836707169 565.3803478721314 517.3232355163987 603.3394676932297 "></path><path d="M510.0587186845697 279.22951951275616C535.0546327902232 355.12580830324487 545.4175837896606 547.0047757045899 504.28731876360007 580.7462155455662C463.1570537375395 614.4876553865424 360.26836471811396 498.5126876595317 312.63344655947947 441.18843074944255C264.998528400845 383.8641738393534 260.7077356652833 352.41153266843423 275.6397116021548 305.58978237713785C290.5716875390264 258.76803208584147 335.46963791429334 221.93575078129987 384.30693105646316 216.44402935122037C433.14422419863286 210.95230792114086 485.06280457891626 203.33323072226744 510.0587186845697 279.22951951275616C535.0546327902232 355.12580830324487 545.4175837896606 547.0047757045899 504.28731876360007 580.7462155455662 "></path><path d="M496.3013769416498 294.3258085928267C518.1728017840967 360.73506128450435 527.2403839086044 528.6291577606812 491.25140201080137 558.1529176215355C455.26242011299837 587.6766774823898 365.2348172210011 486.1985807212553 323.5542638321959 436.03985592492734C281.8737104433907 385.88113112859924 278.1192667997742 358.360070104045 291.1847457445368 317.39103859916065C304.2502246892995 276.4220070942763 343.53593126765804 244.1937609528024 386.2685627670566 239.38850470148287C429.0011942664552 234.5832484501633 474.4299520992031 227.91655590114902 496.3013769416498 294.3258085928267C518.1728017840967 360.73506128450435 527.2403839086044 528.6291577606812 491.25140201080137 558.1529176215355 "></path><path d="M482.54403519872994 309.4221129316863C501.2909707779701 366.3443295245528 509.06318402754823 510.2535550755615 478.2154852580028 535.5596349562938C447.36778648845734 560.865714837026 370.20126972388823 473.8844890417679 334.47508110491236 430.8912963592011C298.74889248593644 387.8981036766342 295.5307979342652 364.30862279844484 306.72977988691883 329.1923100799725C317.92876183957253 294.07599736150024 351.60222462102274 266.45178638309403 388.2301944776501 262.33299531053444C424.8581643342774 258.2142042379748 463.7970996194899 252.49989633881972 482.54403519872994 309.4221129316863C501.2909707779701 366.3443295245528 509.06318402754823 510.2535550755615 478.2154852580028 535.5596349562938 "></path><path d="M468.7867087145992 324.518447788124C484.40915503063263 371.9536282821794 490.88599940528104 491.87798290802004 465.17958376399315 512.9663828086302C439.4731681227054 534.0547827092405 375.16773748556443 461.5704278798587 345.39591363641784 425.74276731105294C315.62408978727126 389.91510674224725 312.9423443275452 370.2572060104228 322.27482928808996 340.9936120783625C331.6073142486347 311.73001814630226 359.6685332331765 288.7098423309638 390.19184144703263 285.2775164371641C420.7151496608887 281.8451905433644 453.16426239856577 277.0832672940685 468.7867087145992 324.518447788124C484.40915503063263 371.9536282821794 490.88599940528104 491.87798290802004 465.17958376399315 512.9663828086302 "></path><path d="M455.02935171289033 339.6147673857726C467.52730876571707 377.56291178101696 472.7087842654358 473.5023954816895 452.1436517524055 490.37311540217763C431.5785192393752 507.24383532266575 380.13417472966245 449.25635145916044 356.3167156503452 420.5942230041158C332.49925657102796 391.9320945490712 330.3538602032471 376.20577396361165 337.8198481716829 352.7948988179635C345.28583614011865 329.38402367231527 367.73481132775214 310.96788302004444 392.153457898837 308.2220223050047C416.5721044699219 305.476161589965 442.5313946600636 301.66662299052825 455.02935171289033 339.6147673857726C467.52730876571707 377.56291178101696 472.7087842654358 473.5023954816895 452.1436517524055 490.37311540217763 "></path><path d="M441.27200996997044 354.7110564658431C450.6454777595905 383.1721647622764 454.5315843843796 455.12677753778075 439.10773499960686 467.7798174781469C423.68388561483414 480.432857418513 385.1006272325496 436.94224452088395 367.2375329230616 415.44564817960054C349.3744386135737 393.94905183831713 347.76539133773804 382.1543113992224 353.3648823140649 364.5961550399863C358.96437329039173 347.0379986807501 375.80110468111684 333.225893191547 394.1150896094305 331.1664976552672C412.42907453774416 329.1071021189874 431.89854218035043 326.24994816940983 441.27200996997044 354.7110564658431C450.6454777595905 383.1721647622764 454.5315843843796 455.12677753778075 439.10773499960686 467.7798174781469 "></path><path d="M427.5146682270506 369.8073760634918C433.763646753464 388.78144826111395 436.35438450332333 436.7511901114502 426.0718182468082 445.1865500716943C415.78925199029305 453.62191003193834 390.0670797354367 424.6281681001857 378.1583501957781 410.29710387266334C366.2496206561194 395.9660396451411 365.176922472229 388.1028793524113 368.9099164564469 376.3974417795872C372.6429104406648 364.6920042067631 383.86739803448154 355.4839338806277 396.076721320024 354.11100352310785C408.2860446055664 352.73807316558793 421.26568970063727 350.8333038658696 427.5146682270506 369.8073760634918C433.763646753464 388.78144826111395 436.35438450332333 436.7511901114502 426.0718182468082 445.1865500716943 "></path><path d="M413.75734174291983 384.90368040235137C416.8818310061265 394.39071650116244 418.1771998810562 418.3755874263306 413.03591675279864 422.5932674064526C407.8946336245411 426.81094738657464 395.03354749711286 412.3140764206983 389.0791827272836 405.14854430693714C383.12481795745424 397.983012193176 382.588468865509 394.0514320468111 384.454965857618 388.1987132603991C386.3214628497269 382.345994473987 391.9337066466353 377.7419593109193 398.03836828940655 377.05549413215937C404.14302993217774 376.36902895339944 410.63285247971316 375.41664430354024 413.75734174291983 384.90368040235137C416.8818310061265 394.39071650116244 418.1771998810562 418.3755874263306 413.03591675279864 422.5932674064526 "></path></g></svg>